HIERARCHY
ROOT Hips
{
	OFFSET -14.64140 90.27770 -84.91600
	CHANNELS 6 Xposition Yposition Zposition Zrotation Xrotation Yrotation
	JOINT Spine
	{
		OFFSET 0.00000 13.20850 -1.60436
		CHANNELS 3 Zrotation Xrotation Yrotation
		JOINT Spine1
		{
			OFFSET 0.00000 8.61716 0.00000
			CHANNELS 3 Zrotation Xrotation Yrotation
			JOINT Spine2
			{
				OFFSET 0.00000 8.61717 0.00000
				CHANNELS 3 Zrotation Xrotation Yrotation
				JOINT Spine3
				{
					OFFSET 0.00000 8.61717 0.00000
					CHANNELS 3 Zrotation Xrotation Yrotation
					JOINT Neck
					{
						OFFSET 0.00000 11.07920 1.10792
						CHANNELS 3 Zrotation Xrotation Yrotation
						JOINT Neck1
						{
							OFFSET 0.00000 7.08032 0.00000
							CHANNELS 3 Zrotation Xrotation Yrotation
							JOINT Head
							{
								OFFSET 0.00000 7.08031 0.00000
								CHANNELS 3 Zrotation Xrotation Yrotation
								End site
								{
									OFFSET 0.00000 0.00000 0.00000
								}
							}
						}
					}
					JOINT RightShoulder
					{
						OFFSET -0.01000 7.91373 5.19711
						CHANNELS 3 Zrotation Xrotation Yrotation
						JOINT RightArm
						{
							OFFSET -18.41580 0.00000 0.00000
							CHANNELS 3 Zrotation Xrotation Yrotation
							JOINT RightForeArm
							{
								OFFSET -29.11090 0.00000 0.00000
								CHANNELS 3 Zrotation Xrotation Yrotation
								JOINT RightHand
								{
									OFFSET -24.65040 0.00000 0.00000
									CHANNELS 3 Zrotation Xrotation Yrotation
									JOINT RightHandThumb1
									{
										OFFSET -5.35114 -0.85590 3.97906
										CHANNELS 3 Zrotation Xrotation Yrotation
										JOINT RightHandThumb2
										{
											OFFSET -4.52789 0.00000 0.00000
											CHANNELS 3 Zrotation Xrotation Yrotation
											JOINT RightHandThumb3
											{
												OFFSET -2.46976 0.00000 0.00000
												CHANNELS 3 Zrotation Xrotation Yrotation
												End site
												{
													OFFSET 0.00000 0.00000 0.00000
												}
											}
										}
									}
									JOINT RightHandIndex1
									{
										OFFSET -14.26970 0.00000 2.88139
										CHANNELS 3 Zrotation Xrotation Yrotation
										JOINT RightHandIndex2
										{
											OFFSET -5.48836 0.00000 0.00000
											CHANNELS 3 Zrotation Xrotation Yrotation
											JOINT RightHandIndex3
											{
												OFFSET -3.01859 0.00000 0.00000
												CHANNELS 3 Zrotation Xrotation Yrotation
												End site
												{
													OFFSET 0.00000 0.00000 0.00000
												}
											}
										}
									}
									JOINT RightHandMiddle1
									{
										OFFSET -14.26970 0.00000 -0.09147
										CHANNELS 3 Zrotation Xrotation Yrotation
										JOINT RightHandMiddle2
										{
											OFFSET -6.17441 0.00000 0.00000
											CHANNELS 3 Zrotation Xrotation Yrotation
											JOINT RightHandMiddle3
											{
												OFFSET -3.56743 0.00000 0.00000
												CHANNELS 3 Zrotation Xrotation Yrotation
												End site
												{
													OFFSET 0.00000 0.00000 0.00000
												}
											}
										}
									}
									JOINT RightHandRing1
									{
										OFFSET -12.69180 0.00000 -3.06433
										CHANNELS 3 Zrotation Xrotation Yrotation
										JOINT RightHandRing2
										{
											OFFSET -5.62556 0.00000 0.00000
											CHANNELS 3 Zrotation Xrotation Yrotation
											JOINT RightHandRing3
											{
												OFFSET -3.56744 0.00000 0.00000
												CHANNELS 3 Zrotation Xrotation Yrotation
												End site
												{
													OFFSET 0.00000 0.00000 0.00000
												}
											}
										}
									}
									JOINT RightHandPinky1
									{
										OFFSET -11.11390 0.00000 -6.03719
										CHANNELS 3 Zrotation Xrotation Yrotation
										JOINT RightHandPinky2
										{
											OFFSET -4.52789 0.00000 0.00000
											CHANNELS 3 Zrotation Xrotation Yrotation
											JOINT RightHandPinky3
											{
												OFFSET -2.46976 0.00000 0.00000
												CHANNELS 3 Zrotation Xrotation Yrotation
												End site
												{
													OFFSET 0.00000 0.00000 0.00000
												}
											}
										}
									}
								}
							}
						}
					}
					JOINT LeftShoulder
					{
						OFFSET 0.01000 7.91373 5.19711
						CHANNELS 3 Zrotation Xrotation Yrotation
						JOINT LeftArm
						{
							OFFSET 18.41580 0.00000 0.00000
							CHANNELS 3 Zrotation Xrotation Yrotation
							JOINT LeftForeArm
							{
								OFFSET 29.11090 0.00000 0.00000
								CHANNELS 3 Zrotation Xrotation Yrotation
								JOINT LeftHand
								{
									OFFSET 24.65040 0.00000 0.00000
									CHANNELS 3 Zrotation Xrotation Yrotation
									JOINT LeftHandThumb1
									{
										OFFSET 5.35114 -0.85590 3.97906
										CHANNELS 3 Zrotation Xrotation Yrotation
										JOINT LeftHandThumb2
										{
											OFFSET 4.52789 0.00000 0.00000
											CHANNELS 3 Zrotation Xrotation Yrotation
											JOINT LeftHandThumb3
											{
												OFFSET 2.46977 0.00000 0.00000
												CHANNELS 3 Zrotation Xrotation Yrotation
												End site
												{
													OFFSET 0.00000 0.00000 0.00000
												}
											}
										}
									}
									JOINT LeftHandIndex1
									{
										OFFSET 14.26970 0.00000 2.88139
										CHANNELS 3 Zrotation Xrotation Yrotation
										JOINT LeftHandIndex2
										{
											OFFSET 5.48836 0.00000 0.00000
											CHANNELS 3 Zrotation Xrotation Yrotation
											JOINT LeftHandIndex3
											{
												OFFSET 3.01859 0.00000 0.00000
												CHANNELS 3 Zrotation Xrotation Yrotation
												End site
												{
													OFFSET 0.00000 0.00000 0.00000
												}
											}
										}
									}
									JOINT LeftHandMiddle1
									{
										OFFSET 14.26970 0.00000 -0.09147
										CHANNELS 3 Zrotation Xrotation Yrotation
										JOINT LeftHandMiddle2
										{
											OFFSET 6.17440 0.00000 0.00000
											CHANNELS 3 Zrotation Xrotation Yrotation
											JOINT LeftHandMiddle3
											{
												OFFSET 3.56744 0.00000 0.00000
												CHANNELS 3 Zrotation Xrotation Yrotation
												End site
												{
													OFFSET 0.00000 0.00000 0.00000
												}
											}
										}
									}
									JOINT LeftHandRing1
									{
										OFFSET 12.69180 0.00000 -3.06433
										CHANNELS 3 Zrotation Xrotation Yrotation
										JOINT LeftHandRing2
										{
											OFFSET 5.62556 0.00000 0.00000
											CHANNELS 3 Zrotation Xrotation Yrotation
											JOINT LeftHandRing3
											{
												OFFSET 3.56744 0.00000 0.00000
												CHANNELS 3 Zrotation Xrotation Yrotation
												End site
												{
													OFFSET 0.00000 0.00000 0.00000
												}
											}
										}
									}
									JOINT LeftHandPinky1
									{
										OFFSET 11.11390 0.00000 -6.03719
										CHANNELS 3 Zrotation Xrotation Yrotation
										JOINT LeftHandPinky2
										{
											OFFSET 4.52789 0.00000 0.00000
											CHANNELS 3 Zrotation Xrotation Yrotation
											JOINT LeftHandPinky3
											{
												OFFSET 2.46976 0.00000 0.00000
												CHANNELS 3 Zrotation Xrotation Yrotation
												End site
												{
													OFFSET 0.00000 0.00000 0.00000
												}
											}
										}
									}
								}
							}
						}
					}
					JOINT pCube4
					{
						OFFSET 0.00000 10.91090 1.10792
						CHANNELS 3 Zrotation Xrotation Yrotation
						End site
						{
							OFFSET 0.00000 0.00000 0.00000
						}
					}
				}
			}
		}
	}
	JOINT RightUpLeg
	{
		OFFSET -9.98441 0.00000 0.00000
		CHANNELS 3 Zrotation Xrotation Yrotation
		JOINT RightLeg
		{
			OFFSET 0.00000 -42.11790 0.00000
			CHANNELS 3 Zrotation Xrotation Yrotation
			JOINT RightFoot
			{
				OFFSET 0.00000 -45.00020 -0.00001
				CHANNELS 3 Zrotation Xrotation Yrotation
				JOINT RightForeFoot
				{
					OFFSET 0.00000 -3.74820 0.00000
					CHANNELS 3 Zrotation Xrotation Yrotation
					JOINT RightToeBase
					{
						OFFSET 0.00000 0.06325 14.43120
						CHANNELS 3 Zrotation Xrotation Yrotation
						End site
						{
							OFFSET 0.00000 0.00000 0.00000
						}
					}
				}
			}
		}
	}
	JOINT LeftUpLeg
	{
		OFFSET 9.98441 0.00000 0.00000
		CHANNELS 3 Zrotation Xrotation Yrotation
		JOINT LeftLeg
		{
			OFFSET 0.00000 -42.11800 0.00000
			CHANNELS 3 Zrotation Xrotation Yrotation
			JOINT LeftFoot
			{
				OFFSET 0.00000 -45.00070 0.00000
				CHANNELS 3 Zrotation Xrotation Yrotation
				JOINT LeftForeFoot
				{
					OFFSET 0.00000 -3.74824 0.00000
					CHANNELS 3 Zrotation Xrotation Yrotation
					JOINT LeftToeBase
					{
						OFFSET 0.00000 0.06325 14.43110
						CHANNELS 3 Zrotation Xrotation Yrotation
						End site
						{
							OFFSET 0.00000 0.00000 0.00000
						}
					}
				}
			}
		}
	}
}
MOTION
Frames: 4
Frame Time: 0.050000
0.028174643014551054 0.03677825891645104 0.010381749381925272 0.003919287037809396 -0.014505830005154425 0.01620713454545885 -1.8169912365878063 1.305439947040426 -0.8207294983993197 -0.9485697545502928 3.8210911098950247 0.3362726849219856 -1.1192678928490627 -1.8297004456458044 -0.6152729345572753 -0.0017699912138179046 0.37381814848312306 -0.7744885815912932 -0.18875927077950022 14.140331290457206 0.017061198940077533 -0.10730936159066587 0.27258130296077004 -2.0821471607257225 -0.027149613287063272 -14.803895834313815 -0.09760384227373037 -6.222272173488903 2.137361282033272 -13.629445740254438 66.77436905008003 14.748272129814296 18.733648830786883 0.6105451002509132 -2.9536043396408593 93.72494962568872 8.917861182238052 -0.1567897698785365 -0.5610636284746142 4.540099067098992 -0.14592658064755612 -1.5827011751104192 0.03412001661024317 0.019231046242370438 -56.19821046421651 0.025327777961592683 -0.015308013932886794 -56.26547393511624 -38.756941385072146 -0.035179013450147935 0.021616860014778205 -0.022916874724847512 0.010430163472232459 -0.004534831968829083 0.015169774084545846 -0.0006096301045802022 0.0066588526202415515 -36.67644351121688 0.04050327612032635 -0.04584901658565797 0.0017634514722726332 0.030012610842268354 0.02019795175234915 0.02979900594728383 -0.03316624081864788 -0.009113991556382121 -19.74724455232618 0.024899409189869656 -0.0035123623100739433 0.011218828284926423 -0.029337374745779264 0.03742489543290958 -0.004513293614946378 -0.021309517037558758 -0.03173083907391539 24.04473062128001 0.031761337886598885 -0.0073190265114479736 28.87558220930094 -0.043904595989746574 0.0431450457094328 28.85244020252535 -0.0004941276424669917 0.04054109681753919 7.894856578739594 1.7336611422292958 12.750665442228696 -66.00608974421877 22.976712172879452 -19.764085441949472 8.086263446567303 -11.980628543929233 -91.0511888663642 -1.5729635293583175 0.8652229647151596 -1.2930288107203227 -0.43298250378489783 0.053988856164521246 -8.127582196628046 -0.025446434848265427 -0.0015858904141054274 44.565998049829254 0.035971402225164775 -0.029547549994405512 44.56132345409878 12.448999715669911 0.026596329062838157 0.03156696906269595 0.0059720370220559945 -0.015935597213905302 -0.02188074476694386 0.005153041246762168 0.021290527193394394 0.02788368743364752 11.119641863446146 -0.02989531263173409 0.018009010486745646 -0.027794354677218094 -0.012744560113884553 0.006708085610060189 0.011483252256997648 0.026152067342467843 0.019831206176411802 4.767071468596456 0.02083477858750355 0.04571337207312432 -0.020252980977549236 -0.0015060200827097985 -0.026080940281028933 -0.025810663685012378 -0.0002455155458659816 -0.016159546166798877 -5.61086995410768 0.020092813152317736 -0.03680426916531681 -6.713623533362088 -0.02724467073075262 0.010166286055949166 -6.732256417645215 -0.030113313265880747 -0.008599950172663455 0.026995845401344327 -0.02595567336889475 0.02551368732946684 8.049195391059815 3.5242552348304312 -19.198408341132897 -0.02241158498623906 10.384494875188652 0.016482626188135088 -5.60657999112828 -15.640932993600645 3.226235666266148 0.00013352862781566775 0.027093938896174542 -0.01757270090009178 0.010304078332687313 4.674313743937038 -0.0001320796045778898 12.431135811864051 -8.231766698812795 6.889210142522299 0.029116366216536783 46.37068345528476 0.04645745360846006 -4.292024521730507 -14.742023544413158 -3.858908754236887 0.0162528204927422 0.033868783315224915 0.04580979730821403 0.041820810398891746 -10.71951061651496 0.025620607340510727 
0.01819756824289736 0.0019933302831603955 -0.010708645029912027 0.0389743195421262 -0.046046245324855885 -0.018160018114303702 -1.8900496568321654 1.408437692769117 -0.8286746802839674 -1.0314318366425828 3.851101674280594 0.35407803244864666 -1.1131485985950038 -1.912906870580843 -0.7317144759845912 -0.053005471606533155 0.3394796458206077 -0.8054893651300388 -0.26182532141851966 14.267063107983107 0.1042358702719757 -0.12093455506478182 0.3772631255936554 -1.7774561713229113 -0.15303922520398855 -14.630963003549608 -0.15148119362134682 -6.508824936590736 2.235948740490398 -13.579982705088826 66.0257571365391 12.435217357661683 19.910839635459894 1.6844113843273107 -2.453807279033588 93.02865316527405 9.029526134435834 -0.12970268306587207 -0.41011428049745074 4.558729361477333 -0.12610805433621466 -1.607944299621516 -0.015929485855231344 0.0019612275271084427 -56.21439551538531 0.004183880656744415 0.03481696792901393 -56.23106715646074 -38.81057281851877 -0.010780308996093854 0.03860471031658305 0.025632061075437845 0.003927177577513976 -0.037717506785279735 -0.008964694013884165 0.021608083935703137 0.044836819297317504 -36.718397928582924 -0.014625029594842255 0.017893511113114557 -0.007327376089376676 0.041567760237664814 0.028249021965801414 0.015611826427782157 0.011746151965380846 -0.027284824507777583 -19.727022227592894 -0.038479637683685584 -0.043061388291256296 -0.002100115383554338 0.0008308994472976882 -0.029472470323213654 0.017035549494006052 -0.01276462994000536 0.021107878004509827 24.094060034561835 -0.04913205800433613 0.01518680633030763 28.88608350569372 -0.028592640105432773 0.048220687626731304 28.874958466496224 -0.0020079243661222227 -0.02791588098999696 8.35223160570791 1.8062766499965277 12.695121546690103 -65.20363571316989 21.10519336183986 -22.08877643351556 5.612434637261006 -10.32604578337833 -90.33014823674989 -1.9109694830343356 1.2165374766625 -1.3862958242515013 -0.47487223924457805 0.08614484564738795 -8.08600420577486 0.021867226576019166 0.047108913212905695 44.549274191567214 0.03267850463290965 0.020581213582928085 44.56360076845146 12.46500752229091 0.022178883664805697 -0.03692956690884457 0.014560929709427893 -0.021400691836532017 0.004174925358294863 -0.006693926791152544 0.046017653486837784 0.0325276307411094 11.068834417190065 0.005477116042329219 0.012871487721882026 -0.025444395517535887 0.023841896292257397 -0.024167413518061828 -0.005790543523295921 0.04460503875780879 -0.02012913217269784 4.8169482631596985 -0.0008961831289948539 -0.00021494226230022692 0.04234463024320887 0.04323961757126739 -0.0298526609082685 0.009971286038773917 -0.02984719656985399 0.044996549197842045 -5.563464576502114 -0.04110976098365138 0.008097498255278422 -6.756031253619854 0.03810989795102859 0.011853140917434895 -6.680548777227079 -0.029838690093886632 0.01738445453827298 0.005922729031960546 0.0245667340407948 0.027637360851780174 8.086992023485587 3.5237707680386134 -19.17499553125896 0.004811547368812535 10.37493097604897 -0.00515466262871488 -5.586049251816789 -15.662770162871503 3.2062882587868304 0.04281774983391752 0.023570763775896692 0.006714574510697 0.026274511754805892 4.722373718486299 -0.0054622849194863946 12.45935056508297 -8.207669018006573 6.8355352059287835 -0.01033150586418496 46.39825162947849 0.0342493000281421 -4.3020992393987125 -14.713255931793341 -3.7997143638901334 -0.005291938920712149 0.008589237843875799 0.03131319767882538 -0.0319815669773195 -10.738797878080359 -0.005946701299011213 
0.016516869055578663 -0.00819497581849865 0.005802319706825248 0.020042424462198803 -0.00580476126063776 -0.026925916761645054 -2.0226087865402467 1.4776923996557656 -0.8080954390584002 -1.0388899179995468 3.7994228596291486 0.34927891610249645 -1.1784731680822889 -1.8960325269640195 -0.8327512119835486 -0.056743601531950426 0.3714025356591341 -0.7607987916059819 -0.35026072276056297 14.473531594218445 0.1161246194118297 -0.1262145197057253 0.494831976067333 -1.494094205874217 -0.15316030439451747 -14.509620567309529 -0.12484426084127495 -6.782781281751173 2.273112396399877 -13.486550895786294 65.21926066553516 10.057813693913744 21.31247877279387 2.207624502622699 -2.2445255886155286 92.64274208257935 9.191983480533864 -0.09014152132564535 -0.35697018920541734 4.546674868315492 -0.17134674753032367 -1.5519562944601604 -0.023936444041050525 0.01664171914895233 -56.2229471674744 0.003850950392383208 -0.00453790001340643 -56.23657872759716 -38.80658081672461 0.04341317052759109 0.04020372631292399 -0.00878731352009266 0.006032040745498063 -0.02401519710574662 0.022447555524271873 0.007139029400252989 -0.01700400911685952 -36.675330068745176 -0.03230966241836579 -0.029634761842199524 0.0060674809535125555 -0.041314623444938955 0.031734022280159625 -0.0035761922075863944 0.0037106552301994626 -0.010910242575869368 -19.758328860624715 -0.01854054437782825 -0.04619040032488265 -0.015673615690146712 0.03217565245396941 -0.040716399506533225 -0.03826588778146173 -0.044598459905755394 -0.02246660603805396 24.032157277663156 0.011416057852528675 0.008725450291936237 28.86605703758608 -0.047222026381806566 0.017235170217661314 28.829512175078268 -0.027010445942611525 -0.021468478536809183 8.856639592701239 1.981841820171667 12.622775027339008 -64.34513922215584 19.464291431547494 -24.69245684185945 3.744299514968193 -8.898620412198072 -89.9381832722838 -2.3855690331664876 1.4040157446382768 -1.465230628002171 -0.437004930934204 0.08221258515366654 -8.124506205554802 -0.009812831385697017 -0.008431248294307707 44.55444083425169 -0.024042470455412246 -0.0092356529106557 44.5494099739866 12.42502023544701 0.0033787504332942185 0.020047669422106635 0.023124964664571 -0.024412718125995745 -0.0038044169959615542 0.00901560801433816 -0.048968961793533695 0.011749002371387393 11.106760605717335 -0.043749006509956424 0.04564288190448333 0.005165546621146447 -0.011990157797373287 -0.03205315629650686 0.022632155267904002 -0.038350645166523735 0.012019580376337635 4.738436647056701 -0.0053709556457884455 -0.010794688707895937 0.02491983346543855 -0.02961167366121166 -0.035891990707552904 0.027936315341691095 -0.02121308701445072 0.0006455569241089956 -5.572083242512638 -0.037517480255132754 0.044068512197877954 -6.70237956279262 -0.00725414705009153 0.04441614979010685 -6.704699003000497 -0.0086453338421077 -0.032606688257542434 -0.010455959554648984 0.03588501392601843 -0.006141629284502981 8.027784145725626 3.5425157406125996 -19.241989462704737 -0.02373864342952238 10.36208191936454 -0.003243560064924874 -5.5766260941099945 -15.678823640209956 3.16463981985802 -0.004502679773302826 -0.038522797252517484 -0.010286956247416039 -0.03346174289228711 4.727887401624052 -0.012110021909251947 12.484845349664393 -8.262359658456221 6.887907983285295 0.0013291686709220431 46.409889228246726 -0.009264250715839487 -4.328575028992325 -14.740599789339468 -3.813833065332276 0.00124672501372887 0.011362201647605352 0.027394717601158046 0.015210388555942275 -10.768605288888374 0.023836887787605107 
-0.035849606755164444 -0.028253239199890298 0.035219894378019416 -0.017413925873095176 0.011632010941080153 0.026263499192051027 -2.105509029350918 1.520642423355102 -0.8316774961926474 -0.9891920130036705 3.8446229232549194 0.35821371953247766 -1.2143843016882792 -1.9109646367604765 -1.00773409463623 -0.15467953777718513 0.3538613404636628 -0.8206042613829483 -0.42000530190396806 14.716971612114607 0.1853762969446315 -0.10495339171424678 0.5447392023031291 -1.2629435683283383 -0.16633239081736403 -14.37184675750678 -0.06763910151887338 -7.172721554805061 2.4446264925036716 -13.441775602004975 64.40725754942231 7.685142065770824 22.859400824928567 1.6976653736917684 -2.136596002715732 92.93922667522824 8.850585349813725 -0.11574022442753658 -0.20281195595427182 4.521011725021104 -0.12888103806895432 -1.580327536486206 -0.032612244826229736 -0.009946587512980543 -56.22196510431282 -0.020363997671136752 0.005149360956437146 -56.20282088001027 -38.7283949655048 0.012409562054650918 0.01367868742422412 0.007647777736650972 -0.034485548624506104 -0.0002748284801255749 -0.004213807075533623 0.031159988666770565 -0.035330889196046066 -36.69605436178285 0.02085973571746208 -0.04442411506762652 -0.011946970039924986 0.018214370164143814 -0.010351591447488647 0.01694537655618814 -0.026244995362676733 0.04057645572654152 -19.77295934744437 -0.010995583378615502 0.03624071069777775 0.003764689820650146 -0.018109317281893765 -0.04702206261530534 0.006197676903329422 0.019105928759489032 0.03722785015971955 24.059317633454082 -0.033293951894127614 -0.03033757715865193 28.88772033624528 0.02459265681377762 0.005855414560030339 28.85026020899606 -0.012527758736330543 -0.03260827028609286 9.382189400317888 2.073353211318996 12.506895700267258 -63.24145650337815 17.995130232103406 -27.64639953508481 2.366052133364518 -7.5079909779922955 -90.45147662029565 -2.476382405021086 1.5537658323544508 -1.5036648347211954 -0.453367393405156 0.046282330861894524 -8.157579854283082 0.023126753964169546 -0.03380543762306168 44.57816771770094 0.013088719876304939 -0.049300493766889976 44.61128816474647 12.415977576469167 0.025688248498971077 -0.01370576933344267 -0.012569602333234996 -0.0409746583751593 -0.018890203732288096 -0.010026369686394764 0.04017685175131026 0.015424139956305517 11.077541651947183 0.00012668747489083553 -0.016483476094327362 0.012369060029735377 0.03637901965693814 0.0064122186127008405 0.04827596827334514 0.009958208617142066 -0.027210247998907595 4.801446379837097 -0.0019191213619092263 -0.02900310450722945 -0.03679629893946844 -0.03244738260343781 -0.028514080331416836 0.03266511137609459 -0.0010926098543679365 -0.008681372210943776 -5.608416049795604 -0.006082887288146355 0.0009801791429461342 -6.721995343013984 0.01442144165990668 -0.003583882071263913 -6.689555740183412 0.033357561839885884 0.005751059542201244 -0.029963273186230172 0.029873107353010415 -0.022012074444840716 8.060604126339557 3.526886285812099 -19.220514828773265 0.0456010897429253 10.357650978651266 -0.013587979569026742 -5.635232790831777 -15.685928775456327 3.217991880659297 -0.037007763281327086 0.007836641955630318 -0.04019832063352518 0.0009034653111351208 4.674275683706443 0.015485359030979239 12.438905199370357 -8.231631675366868 6.878796078280984 -0.032901682495410284 46.35615986377585 -0.005017554044370805 -4.27689261793229 -14.737703698870169 -3.8478940934997468 -0.001406506733232319 0.030432830827961423 -0.015303825071124726 -0.008915145224405214 -10.714510795628254 -0.033448436044274256 
